<?xml version="1.0" encoding="UTF-8" standalone="no"?>
<!DOCTYPE svg PUBLIC "-//W3C//DTD SVG 1.1//EN" "http://www.w3.org/Graphics/SVG/1.1/DTD/svg11.dtd">
<svg width="100%" height="100%" viewBox="0 0 451 451" version="1.1" xmlns="http://www.w3.org/2000/svg" xmlns:xlink="http://www.w3.org/1999/xlink" xml:space="preserve" xmlns:serif="http://www.serif.com/" style="fill-rule:evenodd;clip-rule:evenodd;stroke-linejoin:round;stroke-miterlimit:2;">
    <g>
        <path d="M447.05,428L337.45,318.4C366.85,284.6 384.65,240.5 384.65,192.3C384.65,86.2 298.35,0 192.35,0C86.25,0 0.05,86.3 0.05,192.3C0.05,298.3 86.35,384.6 192.35,384.6C240.55,384.6 284.65,366.8 318.45,337.4L428.05,447C430.65,449.6 434.15,451 437.55,451C440.95,451 444.45,449.7 447.05,447C452.25,441.8 452.25,433.2 447.05,428ZM26.95,192.3C26.95,101.1 101.15,27 192.25,27C283.45,27 357.55,101.2 357.55,192.3C357.55,283.4 283.45,357.7 192.25,357.7C101.15,357.7 26.95,283.5 26.95,192.3Z" style="fill:white;fill-rule:nonzero;"/>
    </g>
</svg>
