<?xml version="1.0" encoding="UTF-8" standalone="no"?>
<!DOCTYPE svg PUBLIC "-//W3C//DTD SVG 1.1//EN" "http://www.w3.org/Graphics/SVG/1.1/DTD/svg11.dtd">
<svg width="100%" height="100%" viewBox="0 0 512 512" version="1.1" xmlns="http://www.w3.org/2000/svg" xmlns:xlink="http://www.w3.org/1999/xlink" xml:space="preserve" xmlns:serif="http://www.serif.com/" style="fill-rule:evenodd;clip-rule:evenodd;stroke-linejoin:round;stroke-miterlimit:2;">
    <g>
        <path d="M189.632,128.955C129.303,191.374 142.468,294.96 211.574,340.847C213.851,342.36 216.88,342.06 218.836,340.149C233.384,325.934 245.692,312.165 256.469,294.653C258.117,291.974 257.092,288.497 254.326,286.998C243.785,281.288 233.296,270.58 227.392,259.269L227.385,259.273C220.312,245.189 217.903,229.401 221.648,213.095C221.652,213.096 221.656,213.097 221.66,213.097C225.969,192.222 248.38,172.803 265.497,154.844C265.461,154.832 265.426,154.819 265.39,154.807L329.521,89.352C355.079,63.267 397.118,63.052 422.94,88.875C449.024,114.431 449.455,156.682 423.899,182.766L385.053,222.712C383.255,224.56 382.672,227.258 383.514,229.696C392.458,255.632 394.658,292.204 388.664,319.834C388.496,320.607 389.45,321.114 390.003,320.548L472.678,236.167C525.493,182.263 525.045,94.499 471.683,41.137C417.226,-13.32 328.571,-12.867 274.673,42.143L189.963,128.601C189.851,128.719 189.745,128.839 189.632,128.955Z" style="fill:white;fill-rule:nonzero;"/>
        <path d="M344.192,352.734C344.191,352.737 344.189,352.74 344.188,352.743C344.241,352.721 344.29,352.7 344.343,352.677C361.216,321.824 364.537,286.439 356.63,251.945L356.593,251.982L356.554,251.965C349.046,221.242 328.444,190.734 300.463,171.951C298.056,170.335 294.212,170.522 291.958,172.345C277.784,183.805 263.911,198.501 254.757,217.254C253.319,220.198 254.396,223.735 257.229,225.38C267.853,231.548 277.447,240.578 283.871,252.566L283.881,252.559C288.887,261.028 293.82,277.097 290.625,294.363L290.618,294.363C287.637,317.254 264.52,338.251 246.144,357.172L246.153,357.181C232.165,371.485 196.606,407.735 182.368,422.282C156.811,448.366 114.56,448.797 88.477,423.24C62.393,397.684 61.962,355.433 87.518,329.349L126.479,289.283C128.244,287.468 128.845,284.828 128.059,282.42C119.408,255.877 117.038,220.13 122.499,192.531C122.651,191.762 121.704,191.271 121.155,191.831L39.724,274.943C-13.632,329.4 -13.18,418.064 40.73,471.973C95.185,525.327 183.391,524.426 236.745,469.971C255.28,449.238 334.624,375.776 344.192,352.734Z" style="fill:white;fill-rule:nonzero;"/>
    </g>
</svg>
